<?xml version="1.0" standalone="no"?><svg xmlns:xlink="http://www.w3.org/1999/xlink" xmlns="http://www.w3.org/2000/svg" viewBox="0 0 1000 583.3388125452035" preserveAspectRatio="xMaxYMax slice"><g transform="scale(1.315010848839503)"><rect x="0" y="0" width="760.4571428571429" height="443.6" fill="#ffffff"/><rect x="253.4857142857143" y="63.371428571428574" width="63.371428571428574" height="63.371428571428574" fill="#ffffff"/><path d="M 253.49 63.37 A 31.69 31.69 0 0 1  285.18 95.06 L 253.49 63.37 A 31.69 31.69 0 0 0 285.18 95.06" fill="#ffdfd4"/><path d="M 285.17 126.75 A 31.69 31.69 0 0 1  316.86 95.06 L 285.17 126.75 A 31.69 31.69 0 0 0 316.86 95.06" fill="#9bf3a0"/><rect x="316.8571428571429" y="126.74285714285715" width="63.371428571428574" height="63.371428571428574" fill="#ffffff"/><path d="M 316.86 158.43 A 31.69 31.69 0 0 1  348.55 126.74 L 316.86 158.43 A 31.69 31.69 0 0 0 348.55 126.74" fill="#5aea61"/><path d="M 348.54 158.43 A 31.69 31.69 0 0 1  380.23 126.74 L 348.54 158.43 A 31.69 31.69 0 0 0 380.23 126.74" fill="#ffd1c1"/><rect x="697.0857142857143" y="126.74285714285715" width="63.371428571428574" height="63.371428571428574" fill="#ffffff"/><path d="M 728.77 126.74 A 31.69 31.69 0 0 1  760.46 158.43 L 728.77 126.74 A 31.69 31.69 0 0 0 760.46 158.43" fill="#ffbba5"/><path d="M 697.09 190.12 A 31.69 31.69 0 0 1  728.7800000000001 158.43 L 697.09 190.12 A 31.69 31.69 0 0 0 728.7800000000001 158.43" fill="#ffd3c4"/><rect x="0" y="190.11428571428573" width="63.371428571428574" height="63.371428571428574" fill="#ffffff"/><path d="M 0 221.8 A 31.69 31.69 0 0 1  31.69 190.11 L 0 221.8 A 31.69 31.69 0 0 0 31.69 190.11" fill="#ff855c"/><path d="M 31.69 221.8 A 31.69 31.69 0 0 1  63.38 190.11 L 31.69 221.8 A 31.69 31.69 0 0 0 63.38 190.11" fill="#ffebe4"/><rect x="63.371428571428574" y="190.11428571428573" width="63.371428571428574" height="63.371428571428574" fill="#ffffff"/><path d="M 63.37 190.11 A 31.69 31.69 0 0 1  95.06 221.8 L 63.37 190.11 A 31.69 31.69 0 0 0 95.06 221.8" fill="#d0f9d2"/><path d="M 63.37 221.8 A 31.69 31.69 0 0 1  95.06 253.49 L 63.37 221.8 A 31.69 31.69 0 0 0 95.06 253.49" fill="#6bec71"/><path d="M 253.49 253.48000000000002 A 63.37 63.37 0 0 1  316.86 190.11 L 253.49 253.48000000000002 A 63.37 63.37 0 0 0 316.86 190.11" fill="#ff9876"/><path d="M 316.86 253.48000000000002 A 63.37 63.37 0 0 1  380.23 190.11 L 316.86 253.48000000000002 A 63.37 63.37 0 0 0 380.23 190.11" fill="#7fef85"/><rect x="380.22857142857146" y="190.11428571428573" width="63.371428571428574" height="63.371428571428574" fill="#ffffff"/><path d="M 380.23 253.49 A 31.69 31.69 0 0 1  411.92 221.8 L 380.23 253.49 A 31.69 31.69 0 0 0 411.92 221.8" fill="#ffefea"/><path d="M 411.91 253.49 A 31.69 31.69 0 0 1  443.6 221.8 L 411.91 253.49 A 31.69 31.69 0 0 0 443.6 221.8" fill="#aaf4ae"/><path d="M 443.6 253.48000000000002 A 63.37 63.37 0 0 1  506.97 190.11 L 443.6 253.48000000000002 A 63.37 63.37 0 0 0 506.97 190.11" fill="#ffc6b3"/><path d="M 697.09 190.11 A 63.37 63.37 0 0 1  760.46 253.48000000000002 L 697.09 190.11 A 63.37 63.37 0 0 0 760.46 253.48000000000002" fill="#48e850"/><rect x="0" y="253.4857142857143" width="63.371428571428574" height="63.371428571428574" fill="#ffffff"/><path d="M 31.69 285.18 A 31.69 31.69 0 0 1  63.38 253.49 L 31.69 285.18 A 31.69 31.69 0 0 0 63.38 253.49" fill="#ffaa8d"/><rect x="63.371428571428574" y="253.4857142857143" width="63.371428571428574" height="63.371428571428574" fill="#ffffff"/><path d="M 95.06 253.49 A 31.69 31.69 0 0 1  126.75 285.18 L 95.06 253.49 A 31.69 31.69 0 0 0 126.75 285.18" fill="#4be853"/><path d="M 63.37 316.86 A 31.69 31.69 0 0 1  95.06 285.17 L 63.37 316.86 A 31.69 31.69 0 0 0 95.06 285.17" fill="#ffb299"/><path d="M 95.06 316.86 A 31.69 31.69 0 0 1  126.75 285.17 L 95.06 316.86 A 31.69 31.69 0 0 0 126.75 285.17" fill="#ff865d"/><rect x="126.74285714285715" y="253.4857142857143" width="63.371428571428574" height="63.371428571428574" fill="#ffffff"/><path d="M 126.74 253.49 A 31.69 31.69 0 0 1  158.43 285.18 L 126.74 253.49 A 31.69 31.69 0 0 0 158.43 285.18" fill="#ff855c"/><path d="M 126.74 285.17 A 31.69 31.69 0 0 1  158.43 316.86 L 126.74 285.17 A 31.69 31.69 0 0 0 158.43 316.86" fill="#b4f6b7"/><path d="M 158.43 316.86 A 31.69 31.69 0 0 1  190.12 285.17 L 158.43 316.86 A 31.69 31.69 0 0 0 190.12 285.17" fill="#66ec6d"/><path d="M 253.49 316.86 A 63.37 63.37 0 0 1  316.86 253.49 L 253.49 316.86 A 63.37 63.37 0 0 0 316.86 253.49" fill="#ffcebe"/><rect x="380.22857142857146" y="253.4857142857143" width="63.371428571428574" height="63.371428571428574" fill="#ffffff"/><path d="M 380.23 253.49 A 31.69 31.69 0 0 1  411.92 285.18 L 380.23 253.49 A 31.69 31.69 0 0 0 411.92 285.18" fill="#9ff3a3"/><path d="M 411.91 316.86 A 31.69 31.69 0 0 1  443.6 285.17 L 411.91 316.86 A 31.69 31.69 0 0 0 443.6 285.17" fill="#2ae433"/><rect x="506.9714285714286" y="253.4857142857143" width="63.371428571428574" height="63.371428571428574" fill="#ffffff"/><path d="M 506.97 285.18 A 31.69 31.69 0 0 1  538.6600000000001 253.49 L 506.97 285.18 A 31.69 31.69 0 0 0 538.6600000000001 253.49" fill="#ff9876"/><path d="M 538.66 253.49 A 31.69 31.69 0 0 1  570.35 285.18 L 538.66 253.49 A 31.69 31.69 0 0 0 570.35 285.18" fill="#ffbaa3"/><path d="M 506.97 285.17 A 31.69 31.69 0 0 1  538.6600000000001 316.86 L 506.97 285.17 A 31.69 31.69 0 0 0 538.6600000000001 316.86" fill="#f8fef8"/><path d="M 538.66 285.17 A 31.69 31.69 0 0 1  570.35 316.86 L 538.66 285.17 A 31.69 31.69 0 0 0 570.35 316.86" fill="#3ae643"/><rect x="570.3428571428572" y="253.4857142857143" width="63.371428571428574" height="63.371428571428574" fill="#ffffff"/><path d="M 570.34 253.49 A 31.69 31.69 0 0 1  602.0300000000001 285.18 L 570.34 253.49 A 31.69 31.69 0 0 0 602.0300000000001 285.18" fill="#44e74c"/><path d="M 602.03 253.49 A 31.69 31.69 0 0 1  633.72 285.18 L 602.03 253.49 A 31.69 31.69 0 0 0 633.72 285.18" fill="#1be225"/><path d="M 570.34 316.86 A 31.69 31.69 0 0 1  602.0300000000001 285.17 L 570.34 316.86 A 31.69 31.69 0 0 0 602.0300000000001 285.17" fill="#cdf9cf"/><path d="M 602.03 285.17 A 31.69 31.69 0 0 1  633.72 316.86 L 602.03 285.17 A 31.69 31.69 0 0 0 633.72 316.86" fill="#cff9d1"/><rect x="697.0857142857143" y="253.4857142857143" width="63.371428571428574" height="63.371428571428574" fill="#ffffff"/><path d="M 697.09 253.49 A 31.69 31.69 0 0 1  728.7800000000001 285.18 L 697.09 253.49 A 31.69 31.69 0 0 0 728.7800000000001 285.18" fill="#88f08d"/><path d="M 728.77 253.49 A 31.69 31.69 0 0 1  760.46 285.18 L 728.77 253.49 A 31.69 31.69 0 0 0 760.46 285.18" fill="#ff9b79"/><path d="M 697.09 316.86 A 31.69 31.69 0 0 1  728.7800000000001 285.17 L 697.09 316.86 A 31.69 31.69 0 0 0 728.7800000000001 285.17" fill="#e5fce6"/><path d="M 728.77 316.86 A 31.69 31.69 0 0 1  760.46 285.17 L 728.77 316.86 A 31.69 31.69 0 0 0 760.46 285.17" fill="#c5f8c8"/><path d="M 0 316.86 A 63.37 63.37 0 0 1  63.37 380.23 L 0 316.86 A 63.37 63.37 0 0 0 63.37 380.23" fill="#ffe1d7"/><rect x="126.74285714285715" y="316.8571428571429" width="63.371428571428574" height="63.371428571428574" fill="#ffffff"/><path d="M 126.74 348.55 A 31.69 31.69 0 0 1  158.43 316.86 L 126.74 348.55 A 31.69 31.69 0 0 0 158.43 316.86" fill="#ffccbc"/><path d="M 158.43 316.86 A 31.69 31.69 0 0 1  190.12 348.55 L 158.43 316.86 A 31.69 31.69 0 0 0 190.12 348.55" fill="#ffb9a2"/><path d="M 126.74 380.23 A 31.69 31.69 0 0 1  158.43 348.54 L 126.74 380.23 A 31.69 31.69 0 0 0 158.43 348.54" fill="#abf4ae"/><path d="M 158.43 380.23 A 31.69 31.69 0 0 1  190.12 348.54 L 158.43 380.23 A 31.69 31.69 0 0 0 190.12 348.54" fill="#44e84c"/><rect x="190.11428571428573" y="316.8571428571429" width="63.371428571428574" height="63.371428571428574" fill="#ffffff"/><path d="M 190.11 316.86 A 31.69 31.69 0 0 1  221.8 348.55 L 190.11 316.86 A 31.69 31.69 0 0 0 221.8 348.55" fill="#fffaf9"/><path d="M 221.8 348.55 A 31.69 31.69 0 0 1  253.49 316.86 L 221.8 348.55 A 31.69 31.69 0 0 0 253.49 316.86" fill="#ff9673"/><path d="M 190.11 380.23 A 31.69 31.69 0 0 1  221.8 348.54 L 190.11 380.23 A 31.69 31.69 0 0 0 221.8 348.54" fill="#ffe2d8"/><path d="M 221.8 380.23 A 31.69 31.69 0 0 1  253.49 348.54 L 221.8 380.23 A 31.69 31.69 0 0 0 253.49 348.54" fill="#4ee955"/><rect x="253.4857142857143" y="316.8571428571429" width="63.371428571428574" height="63.371428571428574" fill="#ffffff"/><path d="M 285.17 316.86 A 31.69 31.69 0 0 1  316.86 348.55 L 285.17 316.86 A 31.69 31.69 0 0 0 316.86 348.55" fill="#aaf4ad"/><path d="M 285.17 380.23 A 31.69 31.69 0 0 1  316.86 348.54 L 285.17 380.23 A 31.69 31.69 0 0 0 316.86 348.54" fill="#e2fbe3"/><path d="M 316.86 316.86 A 63.37 63.37 0 0 1  380.23 380.23 L 316.86 316.86 A 63.37 63.37 0 0 0 380.23 380.23" fill="#ffe5dc"/><rect x="380.22857142857146" y="316.8571428571429" width="63.371428571428574" height="63.371428571428574" fill="#ffffff"/><path d="M 380.23 348.55 A 31.69 31.69 0 0 1  411.92 316.86 L 380.23 348.55 A 31.69 31.69 0 0 0 411.92 316.86" fill="#66ec6d"/><path d="M 411.91 316.86 A 31.69 31.69 0 0 1  443.6 348.55 L 411.91 316.86 A 31.69 31.69 0 0 0 443.6 348.55" fill="#98f29c"/><path d="M 380.23 348.54 A 31.69 31.69 0 0 1  411.92 380.23 L 380.23 348.54 A 31.69 31.69 0 0 0 411.92 380.23" fill="#ffc2ae"/><path d="M 411.91 380.23 A 31.69 31.69 0 0 1  443.6 348.54 L 411.91 380.23 A 31.69 31.69 0 0 0 443.6 348.54" fill="#bbf6be"/><rect x="443.6" y="316.8571428571429" width="63.371428571428574" height="63.371428571428574" fill="#ffffff"/><path d="M 443.6 348.55 A 31.69 31.69 0 0 1  475.29 316.86 L 443.6 348.55 A 31.69 31.69 0 0 0 475.29 316.86" fill="#7aee7f"/><path d="M 443.6 348.54 A 31.69 31.69 0 0 1  475.29 380.23 L 443.6 348.54 A 31.69 31.69 0 0 0 475.29 380.23" fill="#b7f6ba"/><path d="M 475.29 348.54 A 31.69 31.69 0 0 1  506.98 380.23 L 475.29 348.54 A 31.69 31.69 0 0 0 506.98 380.23" fill="#4be853"/><path d="M 570.34 380.23 A 63.37 63.37 0 0 1  633.71 316.86 L 570.34 380.23 A 63.37 63.37 0 0 0 633.71 316.86" fill="#9bf2a0"/><rect x="633.7142857142858" y="316.8571428571429" width="63.371428571428574" height="63.371428571428574" fill="#ffffff"/><path d="M 633.71 348.55 A 31.69 31.69 0 0 1  665.4000000000001 316.86 L 633.71 348.55 A 31.69 31.69 0 0 0 665.4000000000001 316.86" fill="#86f08b"/><path d="M 665.4 348.55 A 31.69 31.69 0 0 1  697.09 316.86 L 665.4 348.55 A 31.69 31.69 0 0 0 697.09 316.86" fill="#ff7d52"/><path d="M 633.71 348.54 A 31.69 31.69 0 0 1  665.4000000000001 380.23 L 633.71 348.54 A 31.69 31.69 0 0 0 665.4000000000001 380.23" fill="#ff855d"/><path d="M 665.4 348.54 A 31.69 31.69 0 0 1  697.09 380.23 L 665.4 348.54 A 31.69 31.69 0 0 0 697.09 380.23" fill="#84f08a"/><path d="M 697.09 316.86 A 63.37 63.37 0 0 1  760.46 380.23 L 697.09 316.86 A 63.37 63.37 0 0 0 760.46 380.23" fill="#20e329"/><path d="M 0 380.23 A 63.37 63.37 0 0 1  63.37 443.6 L 0 380.23 A 63.37 63.37 0 0 0 63.37 443.6" fill="#ffc8b5"/><path d="M 63.37 443.6 A 63.37 63.37 0 0 1  126.74 380.23 L 63.37 443.6 A 63.37 63.37 0 0 0 126.74 380.23" fill="#3de745"/><path d="M 126.74 443.6 A 63.37 63.37 0 0 1  190.10999999999999 380.23 L 126.74 443.6 A 63.37 63.37 0 0 0 190.10999999999999 380.23" fill="#a4f4a8"/><path d="M 190.11 380.23 A 63.37 63.37 0 0 1  253.48000000000002 443.6 L 190.11 380.23 A 63.37 63.37 0 0 0 253.48000000000002 443.6" fill="#ffe9e2"/><path d="M 253.49 443.6 A 63.37 63.37 0 0 1  316.86 380.23 L 253.49 443.6 A 63.37 63.37 0 0 0 316.86 380.23" fill="#64ec6b"/><rect x="316.8571428571429" y="380.22857142857146" width="63.371428571428574" height="63.371428571428574" fill="#ffffff"/><path d="M 316.86 380.23 A 31.69 31.69 0 0 1  348.55 411.92 L 316.86 380.23 A 31.69 31.69 0 0 0 348.55 411.92" fill="#ff8056"/><path d="M 348.54 380.23 A 31.69 31.69 0 0 1  380.23 411.92 L 348.54 380.23 A 31.69 31.69 0 0 0 380.23 411.92" fill="#ffe7de"/><path d="M 316.86 411.91 A 31.69 31.69 0 0 1  348.55 443.6 L 316.86 411.91 A 31.69 31.69 0 0 0 348.55 443.6" fill="#ebfceb"/><path d="M 348.54 443.6 A 31.69 31.69 0 0 1  380.23 411.91 L 348.54 443.6 A 31.69 31.69 0 0 0 380.23 411.91" fill="#ffb9a2"/><rect x="380.22857142857146" y="380.22857142857146" width="63.371428571428574" height="63.371428571428574" fill="#ffffff"/><path d="M 380.23 411.92 A 31.69 31.69 0 0 1  411.92 380.23 L 380.23 411.92 A 31.69 31.69 0 0 0 411.92 380.23" fill="#1ee328"/><path d="M 411.91 380.23 A 31.69 31.69 0 0 1  443.6 411.92 L 411.91 380.23 A 31.69 31.69 0 0 0 443.6 411.92" fill="#8cf191"/><path d="M 380.23 443.6 A 31.69 31.69 0 0 1  411.92 411.91 L 380.23 443.6 A 31.69 31.69 0 0 0 411.92 411.91" fill="#65ec6c"/><path d="M 411.91 443.6 A 31.69 31.69 0 0 1  443.6 411.91 L 411.91 443.6 A 31.69 31.69 0 0 0 443.6 411.91" fill="#ffc3af"/><path d="M 443.6 443.6 A 63.37 63.37 0 0 1  506.97 380.23 L 443.6 443.6 A 63.37 63.37 0 0 0 506.97 380.23" fill="#ddfbde"/><rect x="506.9714285714286" y="380.22857142857146" width="63.371428571428574" height="63.371428571428574" fill="#ffffff"/><path d="M 506.97 411.92 A 31.69 31.69 0 0 1  538.6600000000001 380.23 L 506.97 411.92 A 31.69 31.69 0 0 0 538.6600000000001 380.23" fill="#ffffff"/><path d="M 538.66 380.23 A 31.69 31.69 0 0 1  570.35 411.92 L 538.66 380.23 A 31.69 31.69 0 0 0 570.35 411.92" fill="#fff1ed"/><path d="M 506.97 411.91 A 31.69 31.69 0 0 1  538.6600000000001 443.6 L 506.97 411.91 A 31.69 31.69 0 0 0 538.6600000000001 443.6" fill="#67ec6d"/><path d="M 538.66 443.6 A 31.69 31.69 0 0 1  570.35 411.91 L 538.66 443.6 A 31.69 31.69 0 0 0 570.35 411.91" fill="#ff926d"/><path d="M 570.34 443.6 A 63.37 63.37 0 0 1  633.71 380.23 L 570.34 443.6 A 63.37 63.37 0 0 0 633.71 380.23" fill="#ff8359"/><path d="M 633.71 380.23 A 63.37 63.37 0 0 1  697.08 443.6 L 633.71 380.23 A 63.37 63.37 0 0 0 697.08 443.6" fill="#ff8056"/><rect x="697.0857142857143" y="380.22857142857146" width="63.371428571428574" height="63.371428571428574" fill="#ffffff"/><path d="M 697.09 380.23 A 31.69 31.69 0 0 1  728.7800000000001 411.92 L 697.09 380.23 A 31.69 31.69 0 0 0 728.7800000000001 411.92" fill="#ff6b3a"/><path d="M 728.77 380.23 A 31.69 31.69 0 0 1  760.46 411.92 L 728.77 380.23 A 31.69 31.69 0 0 0 760.46 411.92" fill="#8af08f"/><path d="M 697.09 411.91 A 31.69 31.69 0 0 1  728.7800000000001 443.6 L 697.09 411.91 A 31.69 31.69 0 0 0 728.7800000000001 443.6" fill="#adf5b0"/><path d="M 728.77 411.91 A 31.69 31.69 0 0 1  760.46 443.6 L 728.77 411.91 A 31.69 31.69 0 0 0 760.46 443.6" fill="#dcfbdd"/></g></svg>