<?xml version="1.0" standalone="no"?><svg xmlns:xlink="http://www.w3.org/1999/xlink" xmlns="http://www.w3.org/2000/svg" viewBox="0 0 1000 583.3388125452035" preserveAspectRatio="xMaxYMax slice"><g transform="scale(1.315010848839503)"><rect x="0" y="0" width="760.4571428571429" height="443.6" fill="#ffffff"/><rect x="0" y="0" width="63.37" height="63.37" fill="#cdf8c9"/><g transform="translate(0,0) scale(3.1685) rotate(0)"><path fill-rule="evenodd" clip-rule="evenodd" d="M10 20C15.5228 20 20 15.5228 20 10C20 4.47715 15.5228 0 10 0C4.47715 0 0 4.47715 0 10C0 15.5228 4.47715 20 10 20ZM10 17C13.866 17 17 13.866 17 10C17 6.13401 13.866 3 10 3C6.13401 3 3 6.13401 3 10C3 13.866 6.13401 17 10 17Z" fill="#6ceb60"/></g><rect x="63.37" y="0" width="63.37" height="63.37" fill="#cbf8c7"/><g transform="translate(63.37,0) scale(3.1685) rotate(0)"><path d="M5 0H10L5 5L0 10V5L5 0Z" fill="#67ea5b"/><path d="M20 15V20H15L20 15Z" fill="#67ea5b"/><path d="M20 5V10L15 15L10 20H5L20 5Z" fill="#67ea5b"/><path d="M15 0H20L5 15.0002L0 20.0002V15.0002L15 0Z" fill="#67ea5b"/></g><rect x="126.74" y="0" width="63.37" height="63.37" fill="#feff9d"/><g transform="translate(126.74,0) scale(3.1685) rotate(0)"><path d="M5 0H10L5 5L0 10V5L5 0Z" fill="#b0f4aa"/><path d="M20 15V20H15L20 15Z" fill="#b0f4aa"/><path d="M20 5V10L15 15L10 20H5L20 5Z" fill="#b0f4aa"/><path d="M15 0H20L5 15.0002L0 20.0002V15.0002L15 0Z" fill="#b0f4aa"/></g><rect x="190.11" y="0" width="63.37" height="63.37" fill="#feffb5"/><g transform="translate(190.11,0) scale(3.1685) rotate(0)"><path d="M10 5L5 0L0 5L5 10L0 15L5 20L10 15L15 20L20 15L15 10L20 5L15 0L10 5Z" fill="#feffca"/></g><rect x="253.49" y="0" width="63.37" height="63.37" fill="#feffb0"/><g transform="translate(253.49,0) scale(3.1685) rotate(0)"><path d="M10 0H20L0 20V10L10 0Z" fill="#fcff41"/><path d="M20 10V20H10L20 10Z" fill="#fcff41"/></g><rect x="316.86" y="0" width="63.37" height="63.37" fill="#d9fad6"/><g transform="translate(316.86,0) scale(3.1685) rotate(0)"><rect width="2" height="20" fill="#e8fce7"/><rect x="4" width="2" height="20" fill="#e8fce7"/><rect x="8" width="2" height="20" fill="#e8fce7"/><rect x="12" width="2" height="20" fill="#e8fce7"/><rect x="16" width="2" height="20" fill="#e8fce7"/></g><rect x="380.23" y="0" width="63.37" height="63.37" fill="#fdff8f"/><g transform="translate(380.23,0) scale(3.1685) rotate(0)"><path d="M5 0H10L5 5L0 10V5L5 0Z" fill="#fcff47"/><path d="M20 15V20H15L20 15Z" fill="#fcff47"/><path d="M20 5V10L15 15L10 20H5L20 5Z" fill="#fcff47"/><path d="M15 0H20L5 15.0002L0 20.0002V15.0002L15 0Z" fill="#fcff47"/></g><rect x="443.6" y="0" width="63.37" height="63.37" fill="#aef4a7"/><g transform="translate(443.6,0) scale(3.1685) rotate(0)"><path fill-rule="evenodd" clip-rule="evenodd" d="M10 20C15.5228 20 20 15.5228 20 10C20 4.47715 15.5228 0 10 0C4.47715 0 0 4.47715 0 10C0 15.5228 4.47715 20 10 20ZM10 17C13.866 17 17 13.866 17 10C17 6.13401 13.866 3 10 3C6.13401 3 3 6.13401 3 10C3 13.866 6.13401 17 10 17Z" fill="#feffbb"/></g><rect x="506.97" y="0" width="63.37" height="63.37" fill="#fdff85"/><g transform="translate(506.97,0) scale(3.1685) rotate(0)"><path d="M5 0H10L5 5L0 10V5L5 0Z" fill="#feffab"/><path d="M20 15V20H15L20 15Z" fill="#feffab"/><path d="M20 5V10L15 15L10 20H5L20 5Z" fill="#feffab"/><path d="M15 0H20L5 15.0002L0 20.0002V15.0002L15 0Z" fill="#feffab"/></g><rect x="570.34" y="0" width="63.37" height="63.37" fill="#2ee31d"/><g transform="translate(570.34,0) scale(3.1685) rotate(0)"><path d="M10 0H20V10L10 20H0V10L10 0Z" fill="#fdff5b"/></g><rect x="633.71" y="0" width="63.37" height="63.37" fill="#fdff79"/><path d="M 633.71 0 A 63.37 63.37 0 0 1  697.08 63.37 L 633.71 0 A 63.37 63.37 0 0 0 697.08 63.37" fill="#d1f9cd"/><rect x="697.09" y="0" width="63.37" height="63.37" fill="#b2f5ac"/><g transform="translate(697.09,0) scale(3.1685) rotate(0)"><path d="M10 0H20L0 20V10L10 0Z" fill="#ffffeb"/><path d="M20 10V20H10L20 10Z" fill="#ffffeb"/></g><rect x="0" y="63.37" width="63.37" height="63.37" fill="#fdff97"/><g transform="translate(0,63.37) scale(3.1685) rotate(0)"><path d="M13 0H20V7L7 20H0V13L13 0Z" fill="#5fe953"/></g><rect x="63.37" y="63.37" width="63.37" height="63.37" fill="#fffff9"/><g transform="translate(63.37,63.37) scale(3.1685) rotate(0)"><path d="M10 5L5 0L0 5L5 10L0 15L5 20L10 15L15 20L20 15L15 10L20 5L15 0L10 5Z" fill="#fffffa"/></g><rect x="126.74" y="63.37" width="63.37" height="63.37" fill="#fcff3b"/><path d="M 126.74 63.37 A 63.37 63.37 0 0 1  190.10999999999999 126.74 L 126.74 63.37 A 63.37 63.37 0 0 0 190.10999999999999 126.74" fill="#feffd8"/><rect x="190.11" y="63.37" width="63.37" height="63.37" fill="#ffffec"/><g transform="translate(190.11,63.37) scale(3.1685) rotate(0)"><path fill-rule="evenodd" clip-rule="evenodd" d="M10 20C15.5228 20 20 15.5228 20 10C20 4.47715 15.5228 0 10 0C4.47715 0 0 4.47715 0 10C0 15.5228 4.47715 20 10 20ZM10 17C13.866 17 17 13.866 17 10C17 6.13401 13.866 3 10 3C6.13401 3 3 6.13401 3 10C3 13.866 6.13401 17 10 17Z" fill="#fdff90"/></g><rect x="253.49" y="63.37" width="63.37" height="63.37" fill="#c7f7c2"/><g transform="translate(253.49,63.37) scale(3.1685) rotate(0)"><path d="M5 0H10L5 5L0 10V5L5 0Z" fill="#fcff43"/><path d="M20 15V20H15L20 15Z" fill="#fcff43"/><path d="M20 5V10L15 15L10 20H5L20 5Z" fill="#fcff43"/><path d="M15 0H20L5 15.0002L0 20.0002V15.0002L15 0Z" fill="#fcff43"/></g><rect x="316.86" y="63.37" width="63.37" height="63.37" fill="#e3fbe1"/><g transform="translate(316.86,63.37) scale(3.1685) rotate(0)"><path d="M13 0H20V7L7 20H0V13L13 0Z" fill="#feffd8"/></g><rect x="380.23" y="63.37" width="63.37" height="63.37" fill="#fffffe"/><g transform="translate(380.23,63.37) scale(3.1685) rotate(0)"><rect width="2" height="20" fill="#97f18e"/><rect x="4" width="2" height="20" fill="#97f18e"/><rect x="8" width="2" height="20" fill="#97f18e"/><rect x="12" width="2" height="20" fill="#97f18e"/><rect x="16" width="2" height="20" fill="#97f18e"/></g><rect x="443.6" y="63.37" width="63.37" height="63.37" fill="#ffffe4"/><g transform="translate(443.6,63.37) scale(3.1685) rotate(0)"><path d="M10 0H20L0 20V10L10 0Z" fill="#74ec69"/><path d="M20 10V20H10L20 10Z" fill="#74ec69"/></g><rect x="506.97" y="63.37" width="63.37" height="63.37" fill="#fcff33"/><g transform="translate(506.97,63.37) scale(3.1685) rotate(0)"><path d="M10 0H20V10L10 20H0V10L10 0Z" fill="#feff9f"/></g><rect x="570.34" y="63.37" width="63.37" height="63.37" fill="#31e321"/><g transform="translate(570.34,63.37) scale(3.1685) rotate(0)"><path d="M10 0H20V10L10 20H0V10L10 0Z" fill="#b6f5b0"/></g><rect x="633.71" y="63.37" width="63.37" height="63.37" fill="#e8fce6"/><g transform="translate(633.71,63.37) scale(3.1685) rotate(0)"><path fill-rule="evenodd" clip-rule="evenodd" d="M10 20C15.5228 20 20 15.5228 20 10C20 4.47715 15.5228 0 10 0C4.47715 0 0 4.47715 0 10C0 15.5228 4.47715 20 10 20ZM10 17C13.866 17 17 13.866 17 10C17 6.13401 13.866 3 10 3C6.13401 3 3 6.13401 3 10C3 13.866 6.13401 17 10 17Z" fill="#feffd8"/></g><rect x="697.09" y="63.37" width="63.37" height="63.37" fill="#feffd8"/><g transform="translate(697.09,63.37) scale(3.1685) rotate(0)"><path d="M10 0H20V10L10 20H0V10L10 0Z" fill="#b6f5b0"/></g><rect x="0" y="126.74" width="63.37" height="63.37" fill="#fdff56"/><g transform="translate(0,126.74) scale(3.1685) rotate(0)"><rect width="20" height="2" fill="#4be73d"/><rect y="4" width="20" height="2" fill="#4be73d"/><rect y="8" width="20" height="2" fill="#4be73d"/><rect y="12" width="20" height="2" fill="#4be73d"/><rect y="16" width="20" height="2" fill="#4be73d"/></g><rect x="63.37" y="126.74" width="63.37" height="63.37" fill="#2de31c"/><g transform="translate(63.37,126.74) scale(3.1685) rotate(0)"><rect width="2" height="20" fill="#feffb0"/><rect x="4" width="2" height="20" fill="#feffb0"/><rect x="8" width="2" height="20" fill="#feffb0"/><rect x="12" width="2" height="20" fill="#feffb0"/><rect x="16" width="2" height="20" fill="#feffb0"/></g><rect x="126.74" y="126.74" width="63.37" height="63.37" fill="#feffda"/><g transform="translate(126.74,126.74) scale(3.1685) rotate(0)"><path d="M10 5L5 0L0 5L5 10L0 15L5 20L10 15L15 20L20 15L15 10L20 5L15 0L10 5Z" fill="#ffffe0"/></g><rect x="190.11" y="126.74" width="63.37" height="63.37" fill="#abf4a5"/><g transform="translate(190.11,126.74) scale(3.1685) rotate(0)"><rect width="20" height="2" fill="#fdff5f"/><rect y="4" width="20" height="2" fill="#fdff5f"/><rect y="8" width="20" height="2" fill="#fdff5f"/><rect y="12" width="20" height="2" fill="#fdff5f"/><rect y="16" width="20" height="2" fill="#fdff5f"/></g><rect x="253.49" y="126.74" width="63.37" height="63.37" fill="#54e847"/><g transform="translate(253.49,126.74) scale(3.1685) rotate(0)"><path d="M10 0H20L0 20V10L10 0Z" fill="#fdff75"/><path d="M20 10V20H10L20 10Z" fill="#fdff75"/></g><rect x="316.86" y="126.74" width="63.37" height="63.37" fill="#ffffe5"/><g transform="translate(316.86,126.74) scale(3.1685) rotate(0)"><path fill-rule="evenodd" clip-rule="evenodd" d="M10 20C15.5228 20 20 15.5228 20 10C20 4.47715 15.5228 0 10 0C4.47715 0 0 4.47715 0 10C0 15.5228 4.47715 20 10 20ZM10 17C13.866 17 17 13.866 17 10C17 6.13401 13.866 3 10 3C6.13401 3 3 6.13401 3 10C3 13.866 6.13401 17 10 17Z" fill="#35e425"/></g><rect x="380.23" y="126.74" width="63.37" height="63.37" fill="#b9f6b3"/><path d="M 380.23 190.10999999999999 A 63.37 63.37 0 0 1  443.6 126.74 L 380.23 190.10999999999999 A 63.37 63.37 0 0 0 443.6 126.74" fill="#f7fef6"/><rect x="443.6" y="126.74" width="63.37" height="63.37" fill="#feffbb"/><g transform="translate(443.6,126.74) scale(3.1685) rotate(0)"><path d="M10 0H20L0 20V10L10 0Z" fill="#fcff43"/><path d="M20 10V20H10L20 10Z" fill="#fcff43"/></g><rect x="506.97" y="126.74" width="63.37" height="63.37" fill="#d1f9cd"/><path d="M 506.97 126.74 A 63.37 63.37 0 0 0 570.34 190.10999999999999 L 570.34 126.74" fill="#fdff6f"/><rect x="570.34" y="126.74" width="63.37" height="63.37" fill="#d9fad6"/><g transform="translate(570.34,126.74) scale(3.1685) rotate(0)"><path d="M10 0H20L0 20V10L10 0Z" fill="#e0fbdd"/><path d="M20 10V20H10L20 10Z" fill="#e0fbdd"/></g><rect x="633.71" y="126.74" width="63.37" height="63.37" fill="#feff9d"/><g transform="translate(633.71,126.74) scale(3.1685) rotate(0)"><path fill-rule="evenodd" clip-rule="evenodd" d="M10 20C15.5228 20 20 15.5228 20 10C20 4.47715 15.5228 0 10 0C4.47715 0 0 4.47715 0 10C0 15.5228 4.47715 20 10 20ZM10 17C13.866 17 17 13.866 17 10C17 6.13401 13.866 3 10 3C6.13401 3 3 6.13401 3 10C3 13.866 6.13401 17 10 17Z" fill="#c9f8c5"/></g><rect x="697.09" y="126.74" width="63.37" height="63.37" fill="#feffa9"/><g transform="translate(697.09,126.74) scale(3.1685) rotate(0)"><path fill-rule="evenodd" clip-rule="evenodd" d="M10 20C15.5228 20 20 15.5228 20 10C20 4.47715 15.5228 0 10 0C4.47715 0 0 4.47715 0 10C0 15.5228 4.47715 20 10 20ZM10 17C13.866 17 17 13.866 17 10C17 6.13401 13.866 3 10 3C6.13401 3 3 6.13401 3 10C3 13.866 6.13401 17 10 17Z" fill="#ffffe9"/></g><rect x="0" y="190.11" width="63.37" height="63.37" fill="#ffffe9"/><path d="M 0 190.11 A 63.37 63.37 0 0 1  63.37 253.48000000000002 L 0 190.11 A 63.37 63.37 0 0 0 63.37 253.48000000000002" fill="#feffa6"/><rect x="63.37" y="190.11" width="63.37" height="63.37" fill="#effded"/><path d="M 63.37 190.11 A 63.37 63.37 0 0 0 126.74 253.48000000000002 L 126.74 190.11" fill="#feffc1"/><rect x="126.74" y="190.11" width="63.37" height="63.37" fill="#fdff59"/><g transform="translate(126.74,190.11) scale(3.1685) rotate(0)"><path d="M5 0H10L5 5L0 10V5L5 0Z" fill="#fdff66"/><path d="M20 15V20H15L20 15Z" fill="#fdff66"/><path d="M20 5V10L15 15L10 20H5L20 5Z" fill="#fdff66"/><path d="M15 0H20L5 15.0002L0 20.0002V15.0002L15 0Z" fill="#fdff66"/></g><rect x="190.11" y="190.11" width="63.37" height="63.37" fill="#b2f5ac"/><g transform="translate(190.11,190.11) scale(3.1685) rotate(0)"><path d="M10 0H20L0 20V10L10 0Z" fill="#feffd9"/><path d="M20 10V20H10L20 10Z" fill="#feffd9"/></g><rect x="253.49" y="190.11" width="63.37" height="63.37" fill="#fdff89"/><g transform="translate(253.49,190.11) scale(3.1685) rotate(0)"><path d="M10 5L5 0L0 5L5 10L0 15L5 20L10 15L15 20L20 15L15 10L20 5L15 0L10 5Z" fill="#feffb0"/></g><rect x="316.86" y="190.11" width="63.37" height="63.37" fill="#32e322"/><g transform="translate(316.86,190.11) scale(3.1685) rotate(0)"><path d="M10 5L5 0L0 5L5 10L0 15L5 20L10 15L15 20L20 15L15 10L20 5L15 0L10 5Z" fill="#bff6ba"/></g><rect x="380.23" y="190.11" width="63.37" height="63.37" fill="#fdff81"/><g transform="translate(380.23,190.11) scale(3.1685) rotate(0)"><path d="M10 0H20V10L10 20H0V10L10 0Z" fill="#feffac"/></g><rect x="443.6" y="190.11" width="63.37" height="63.37" fill="#b8f5b2"/><g transform="translate(443.6,190.11) scale(3.1685) rotate(0)"><rect width="20" height="2" fill="#fcff33"/><rect y="4" width="20" height="2" fill="#fcff33"/><rect y="8" width="20" height="2" fill="#fcff33"/><rect y="12" width="20" height="2" fill="#fcff33"/><rect y="16" width="20" height="2" fill="#fcff33"/></g><rect x="506.97" y="190.11" width="63.37" height="63.37" fill="#feffbc"/><path d="M 506.97 253.48000000000002 A 63.37 63.37 0 0 1  570.34 190.11 L 570.34 253.48000000000002" fill="#85ee7b"/><rect x="570.34" y="190.11" width="63.37" height="63.37" fill="#6beb5f"/><g transform="translate(570.34,190.11) scale(3.1685) rotate(0)"><path d="M10 5L5 0L0 5L5 10L0 15L5 20L10 15L15 20L20 15L15 10L20 5L15 0L10 5Z" fill="#b3f5ad"/></g><rect x="633.71" y="190.11" width="63.37" height="63.37" fill="#69eb5d"/><g transform="translate(633.71,190.11) scale(3.1685) rotate(0)"><path d="M13 0H20V7L7 20H0V13L13 0Z" fill="#feffc8"/></g><rect x="697.09" y="190.11" width="63.37" height="63.37" fill="#f1fdf0"/><path d="M 697.09 190.11 A 63.37 63.37 0 0 1  760.46 253.48000000000002 L 697.09 190.11 A 63.37 63.37 0 0 0 760.46 253.48000000000002" fill="#a5f39e"/><rect x="0" y="253.49" width="63.37" height="63.37" fill="#b9f6b4"/><g transform="translate(0,253.49) scale(3.1685) rotate(0)"><path d="M10 0H20V10L10 20H0V10L10 0Z" fill="#fffff6"/></g><rect x="63.37" y="253.49" width="63.37" height="63.37" fill="#feffb4"/><g transform="translate(63.37,253.49) scale(3.1685) rotate(0)"><path d="M13 0H20V7L7 20H0V13L13 0Z" fill="#2de31c"/></g><rect x="126.74" y="253.49" width="63.37" height="63.37" fill="#feffca"/><path d="M 126.74 253.49 A 63.37 63.37 0 0 0 190.10999999999999 316.86 L 190.10999999999999 253.49" fill="#feffbf"/><rect x="190.11" y="253.49" width="63.37" height="63.37" fill="#2ce21b"/><g transform="translate(190.11,253.49) scale(3.1685) rotate(0)"><path d="M10 0H20V10L10 20H0V10L10 0Z" fill="#feffd0"/></g><rect x="253.49" y="253.49" width="63.37" height="63.37" fill="#adf4a7"/><g transform="translate(253.49,253.49) scale(3.1685) rotate(0)"><path d="M10 0H20L0 20V10L10 0Z" fill="#a8f3a1"/><path d="M20 10V20H10L20 10Z" fill="#a8f3a1"/></g><rect x="316.86" y="253.49" width="63.37" height="63.37" fill="#80ee76"/><g transform="translate(316.86,253.49) scale(3.1685) rotate(0)"><path d="M10 5L5 0L0 5L5 10L0 15L5 20L10 15L15 20L20 15L15 10L20 5L15 0L10 5Z" fill="#ffffe8"/></g><rect x="380.23" y="253.49" width="63.37" height="63.37" fill="#fffff0"/><g transform="translate(380.23,253.49) scale(3.1685) rotate(0)"><path fill-rule="evenodd" clip-rule="evenodd" d="M10 20C15.5228 20 20 15.5228 20 10C20 4.47715 15.5228 0 10 0C4.47715 0 0 4.47715 0 10C0 15.5228 4.47715 20 10 20ZM10 17C13.866 17 17 13.866 17 10C17 6.13401 13.866 3 10 3C6.13401 3 3 6.13401 3 10C3 13.866 6.13401 17 10 17Z" fill="#b3f5ad"/></g><rect x="443.6" y="253.49" width="63.37" height="63.37" fill="#fdff84"/><g transform="translate(443.6,253.49) scale(3.1685) rotate(0)"><path fill-rule="evenodd" clip-rule="evenodd" d="M10 20C15.5228 20 20 15.5228 20 10C20 4.47715 15.5228 0 10 0C4.47715 0 0 4.47715 0 10C0 15.5228 4.47715 20 10 20ZM10 17C13.866 17 17 13.866 17 10C17 6.13401 13.866 3 10 3C6.13401 3 3 6.13401 3 10C3 13.866 6.13401 17 10 17Z" fill="#d8fad5"/></g><rect x="506.97" y="253.49" width="63.37" height="63.37" fill="#fdff92"/><g transform="translate(506.97,253.49) scale(3.1685) rotate(0)"><path d="M10 5L5 0L0 5L5 10L0 15L5 20L10 15L15 20L20 15L15 10L20 5L15 0L10 5Z" fill="#fffff8"/></g><rect x="570.34" y="253.49" width="63.37" height="63.37" fill="#fdff89"/><path d="M 570.34 253.49 A 63.37 63.37 0 0 1  633.71 316.86 L 570.34 253.49 A 63.37 63.37 0 0 0 633.71 316.86" fill="#e8fce6"/><rect x="633.71" y="253.49" width="63.37" height="63.37" fill="#b1f4aa"/><g transform="translate(633.71,253.49) scale(3.1685) rotate(0)"><path d="M10 0H20V10L10 20H0V10L10 0Z" fill="#fdff6b"/></g><rect x="697.09" y="253.49" width="63.37" height="63.37" fill="#32e321"/><g transform="translate(697.09,253.49) scale(3.1685) rotate(0)"><path d="M13 0H20V7L7 20H0V13L13 0Z" fill="#fdff79"/></g><rect x="0" y="316.86" width="63.37" height="63.37" fill="#fefffe"/><path d="M 0 380.23 A 63.37 63.37 0 0 1  63.37 316.86 L 0 380.23 A 63.37 63.37 0 0 0 63.37 316.86" fill="#fdff79"/><rect x="63.37" y="316.86" width="63.37" height="63.37" fill="#fdff7f"/><g transform="translate(63.37,316.86) scale(3.1685) rotate(0)"><path d="M5 0H10L5 5L0 10V5L5 0Z" fill="#aaf4a4"/><path d="M20 15V20H15L20 15Z" fill="#aaf4a4"/><path d="M20 5V10L15 15L10 20H5L20 5Z" fill="#aaf4a4"/><path d="M15 0H20L5 15.0002L0 20.0002V15.0002L15 0Z" fill="#aaf4a4"/></g><rect x="126.74" y="316.86" width="63.37" height="63.37" fill="#b4f5ae"/><g transform="translate(126.74,316.86) scale(3.1685) rotate(0)"><path d="M5 0H10L5 5L0 10V5L5 0Z" fill="#59e84b"/><path d="M20 15V20H15L20 15Z" fill="#59e84b"/><path d="M20 5V10L15 15L10 20H5L20 5Z" fill="#59e84b"/><path d="M15 0H20L5 15.0002L0 20.0002V15.0002L15 0Z" fill="#59e84b"/></g><rect x="190.11" y="316.86" width="63.37" height="63.37" fill="#feffd8"/><g transform="translate(190.11,316.86) scale(3.1685) rotate(0)"><path fill-rule="evenodd" clip-rule="evenodd" d="M10 20C15.5228 20 20 15.5228 20 10C20 4.47715 15.5228 0 10 0C4.47715 0 0 4.47715 0 10C0 15.5228 4.47715 20 10 20ZM10 17C13.866 17 17 13.866 17 10C17 6.13401 13.866 3 10 3C6.13401 3 3 6.13401 3 10C3 13.866 6.13401 17 10 17Z" fill="#91f089"/></g><rect x="253.49" y="316.86" width="63.37" height="63.37" fill="#8aef80"/><path d="M 253.49 316.86 A 63.37 63.37 0 0 1  316.86 380.23 L 253.49 316.86 A 63.37 63.37 0 0 0 316.86 380.23" fill="#6ceb60"/><rect x="316.86" y="316.86" width="63.37" height="63.37" fill="#fcff4d"/><g transform="translate(316.86,316.86) scale(3.1685) rotate(0)"><rect width="2" height="20" fill="#46e637"/><rect x="4" width="2" height="20" fill="#46e637"/><rect x="8" width="2" height="20" fill="#46e637"/><rect x="12" width="2" height="20" fill="#46e637"/><rect x="16" width="2" height="20" fill="#46e637"/></g><rect x="380.23" y="316.86" width="63.37" height="63.37" fill="#fdff5d"/><g transform="translate(380.23,316.86) scale(3.1685) rotate(0)"><path d="M10 5L5 0L0 5L5 10L0 15L5 20L10 15L15 20L20 15L15 10L20 5L15 0L10 5Z" fill="#7bed70"/></g><rect x="443.6" y="316.86" width="63.37" height="63.37" fill="#51e743"/><g transform="translate(443.6,316.86) scale(3.1685) rotate(0)"><rect width="20" height="2" fill="#fdff68"/><rect y="4" width="20" height="2" fill="#fdff68"/><rect y="8" width="20" height="2" fill="#fdff68"/><rect y="12" width="20" height="2" fill="#fdff68"/><rect y="16" width="20" height="2" fill="#fdff68"/></g><rect x="506.97" y="316.86" width="63.37" height="63.37" fill="#fcff38"/><g transform="translate(506.97,316.86) scale(3.1685) rotate(0)"><path d="M13 0H20V7L7 20H0V13L13 0Z" fill="#30e31f"/></g><rect x="570.34" y="316.86" width="63.37" height="63.37" fill="#d1f9ce"/><g transform="translate(570.34,316.86) scale(3.1685) rotate(0)"><path d="M5 0H10L5 5L0 10V5L5 0Z" fill="#95f18d"/><path d="M20 15V20H15L20 15Z" fill="#95f18d"/><path d="M20 5V10L15 15L10 20H5L20 5Z" fill="#95f18d"/><path d="M15 0H20L5 15.0002L0 20.0002V15.0002L15 0Z" fill="#95f18d"/></g><rect x="633.71" y="316.86" width="63.37" height="63.37" fill="#f8fef8"/><g transform="translate(633.71,316.86) scale(3.1685) rotate(0)"><path d="M10 5L5 0L0 5L5 10L0 15L5 20L10 15L15 20L20 15L15 10L20 5L15 0L10 5Z" fill="#fdff5c"/></g><rect x="697.09" y="316.86" width="63.37" height="63.37" fill="#33e323"/><g transform="translate(697.09,316.86) scale(3.1685) rotate(0)"><rect width="2" height="20" fill="#feffa0"/><rect x="4" width="2" height="20" fill="#feffa0"/><rect x="8" width="2" height="20" fill="#feffa0"/><rect x="12" width="2" height="20" fill="#feffa0"/><rect x="16" width="2" height="20" fill="#feffa0"/></g><rect x="0" y="380.23" width="63.37" height="63.37" fill="#fdff6f"/><g transform="translate(0,380.23) scale(3.1685) rotate(0)"><path d="M10 0H20V10L10 20H0V10L10 0Z" fill="#74ec69"/></g><rect x="63.37" y="380.23" width="63.37" height="63.37" fill="#fdff57"/><g transform="translate(63.37,380.23) scale(3.1685) rotate(0)"><path d="M5 0H10L5 5L0 10V5L5 0Z" fill="#fbfefa"/><path d="M20 15V20H15L20 15Z" fill="#fbfefa"/><path d="M20 5V10L15 15L10 20H5L20 5Z" fill="#fbfefa"/><path d="M15 0H20L5 15.0002L0 20.0002V15.0002L15 0Z" fill="#fbfefa"/></g><rect x="126.74" y="380.23" width="63.37" height="63.37" fill="#feffcb"/><g transform="translate(126.74,380.23) scale(3.1685) rotate(0)"><path fill-rule="evenodd" clip-rule="evenodd" d="M10 20C15.5228 20 20 15.5228 20 10C20 4.47715 15.5228 0 10 0C4.47715 0 0 4.47715 0 10C0 15.5228 4.47715 20 10 20ZM10 17C13.866 17 17 13.866 17 10C17 6.13401 13.866 3 10 3C6.13401 3 3 6.13401 3 10C3 13.866 6.13401 17 10 17Z" fill="#fdff61"/></g><rect x="190.11" y="380.23" width="63.37" height="63.37" fill="#fcff46"/><g transform="translate(190.11,380.23) scale(3.1685) rotate(0)"><rect width="20" height="2" fill="#fcff36"/><rect y="4" width="20" height="2" fill="#fcff36"/><rect y="8" width="20" height="2" fill="#fcff36"/><rect y="12" width="20" height="2" fill="#fcff36"/><rect y="16" width="20" height="2" fill="#fcff36"/></g><rect x="253.49" y="380.23" width="63.37" height="63.37" fill="#feffc7"/><g transform="translate(253.49,380.23) scale(3.1685) rotate(0)"><path d="M10 5L5 0L0 5L5 10L0 15L5 20L10 15L15 20L20 15L15 10L20 5L15 0L10 5Z" fill="#bdf6b8"/></g><rect x="316.86" y="380.23" width="63.37" height="63.37" fill="#feffa5"/><g transform="translate(316.86,380.23) scale(3.1685) rotate(0)"><path d="M5 0H10L5 5L0 10V5L5 0Z" fill="#eafce9"/><path d="M20 15V20H15L20 15Z" fill="#eafce9"/><path d="M20 5V10L15 15L10 20H5L20 5Z" fill="#eafce9"/><path d="M15 0H20L5 15.0002L0 20.0002V15.0002L15 0Z" fill="#eafce9"/></g><rect x="380.23" y="380.23" width="63.37" height="63.37" fill="#8aef81"/><g transform="translate(380.23,380.23) scale(3.1685) rotate(0)"><path d="M10 5L5 0L0 5L5 10L0 15L5 20L10 15L15 20L20 15L15 10L20 5L15 0L10 5Z" fill="#fdff5f"/></g><rect x="443.6" y="380.23" width="63.37" height="63.37" fill="#fdff66"/><path d="M 443.6 443.6 A 63.37 63.37 0 0 1  506.97 380.23 L 443.6 443.6 A 63.37 63.37 0 0 0 506.97 380.23" fill="#8cef83"/><rect x="506.97" y="380.23" width="63.37" height="63.37" fill="#feffb7"/><g transform="translate(506.97,380.23) scale(3.1685) rotate(0)"><rect width="2" height="20" fill="#abf4a4"/><rect x="4" width="2" height="20" fill="#abf4a4"/><rect x="8" width="2" height="20" fill="#abf4a4"/><rect x="12" width="2" height="20" fill="#abf4a4"/><rect x="16" width="2" height="20" fill="#abf4a4"/></g><rect x="570.34" y="380.23" width="63.37" height="63.37" fill="#ffffe3"/><g transform="translate(570.34,380.23) scale(3.1685) rotate(0)"><rect width="20" height="2" fill="#fdff7c"/><rect y="4" width="20" height="2" fill="#fdff7c"/><rect y="8" width="20" height="2" fill="#fdff7c"/><rect y="12" width="20" height="2" fill="#fdff7c"/><rect y="16" width="20" height="2" fill="#fdff7c"/></g><rect x="633.71" y="380.23" width="63.37" height="63.37" fill="#fcff55"/><g transform="translate(633.71,380.23) scale(3.1685) rotate(0)"><path d="M10 5L5 0L0 5L5 10L0 15L5 20L10 15L15 20L20 15L15 10L20 5L15 0L10 5Z" fill="#e2fbe0"/></g><rect x="697.09" y="380.23" width="63.37" height="63.37" fill="#fdff92"/><g transform="translate(697.09,380.23) scale(3.1685) rotate(0)"><path d="M10 0H20V10L10 20H0V10L10 0Z" fill="#fdff85"/></g></g></svg>