<?xml version="1.0" standalone="no"?><svg xmlns:xlink="http://www.w3.org/1999/xlink" xmlns="http://www.w3.org/2000/svg" viewBox="0 0 1000 583.3388125452035" preserveAspectRatio="xMaxYMax slice"><g transform="scale(1.315010848839503)"><rect x="0" y="0" width="760.4571428571429" height="443.6" fill="#ffffff"/><rect x="253.4857142857143" y="63.371428571428574" width="63.371428571428574" height="63.371428571428574" fill="#ffffff"/><path d="M 285.17 95.06 A 31.69 31.69 0 0 1  316.86 63.37 L 285.17 95.06 A 31.69 31.69 0 0 0 316.86 63.37" fill="#fafbfe"/><path d="M 443.6 63.37 A 63.37 63.37 0 0 1  506.97 126.74 L 443.6 63.37 A 63.37 63.37 0 0 0 506.97 126.74" fill="#ffcdd9"/><rect x="63.371428571428574" y="126.74285714285715" width="63.371428571428574" height="63.371428571428574" fill="#ffffff"/><path d="M 63.37 126.74 A 31.69 31.69 0 0 1  95.06 158.43 L 63.37 126.74 A 31.69 31.69 0 0 0 95.06 158.43" fill="#ffb5c6"/><path d="M 63.37 158.43 A 31.69 31.69 0 0 1  95.06 190.12 L 63.37 158.43 A 31.69 31.69 0 0 0 95.06 190.12" fill="#264be3"/><path d="M 95.06 158.43 A 31.69 31.69 0 0 1  126.75 190.12 L 95.06 158.43 A 31.69 31.69 0 0 0 126.75 190.12" fill="#1a41e1"/><path d="M 126.74 126.74 A 63.37 63.37 0 0 1  190.10999999999999 190.10999999999999 L 126.74 126.74 A 63.37 63.37 0 0 0 190.10999999999999 190.10999999999999" fill="#aebcf5"/><path d="M 63.37 253.48000000000002 A 63.37 63.37 0 0 1  126.74 190.11 L 63.37 253.48000000000002 A 63.37 63.37 0 0 0 126.74 190.11" fill="#ff6489"/><rect x="253.4857142857143" y="190.11428571428573" width="63.371428571428574" height="63.371428571428574" fill="#ffffff"/><path d="M 253.49 221.8 A 31.69 31.69 0 0 1  285.18 190.11 L 253.49 221.8 A 31.69 31.69 0 0 0 285.18 190.11" fill="#c6d0f8"/><path d="M 285.17 221.8 A 31.69 31.69 0 0 1  316.86 190.11 L 285.17 221.8 A 31.69 31.69 0 0 0 316.86 190.11" fill="#2a4ee3"/><path d="M 316.86 253.48000000000002 A 63.37 63.37 0 0 1  380.23 190.11 L 316.86 253.48000000000002 A 63.37 63.37 0 0 0 380.23 190.11" fill="#ffe2e9"/><path d="M 380.23 253.48000000000002 A 63.37 63.37 0 0 1  443.6 190.11 L 380.23 253.48000000000002 A 63.37 63.37 0 0 0 443.6 190.11" fill="#e2e7fb"/><path d="M 443.6 190.11 A 63.37 63.37 0 0 1  506.97 253.48000000000002 L 443.6 190.11 A 63.37 63.37 0 0 0 506.97 253.48000000000002" fill="#ff3d6b"/><path d="M 506.97 190.11 A 63.37 63.37 0 0 1  570.34 253.48000000000002 L 506.97 190.11 A 63.37 63.37 0 0 0 570.34 253.48000000000002" fill="#1940e1"/><rect x="570.3428571428572" y="190.11428571428573" width="63.371428571428574" height="63.371428571428574" fill="#ffffff"/><path d="M 602.03 253.49 A 31.69 31.69 0 0 1  633.72 221.8 L 602.03 253.49 A 31.69 31.69 0 0 0 633.72 221.8" fill="#a2b2f3"/><rect x="126.74285714285715" y="253.4857142857143" width="63.371428571428574" height="63.371428571428574" fill="#ffffff"/><path d="M 126.74 253.49 A 31.69 31.69 0 0 1  158.43 285.18 L 126.74 253.49 A 31.69 31.69 0 0 0 158.43 285.18" fill="#c0caf7"/><rect x="190.11428571428573" y="253.4857142857143" width="63.371428571428574" height="63.371428571428574" fill="#ffffff"/><path d="M 190.11 253.49 A 31.69 31.69 0 0 1  221.8 285.18 L 190.11 253.49 A 31.69 31.69 0 0 0 221.8 285.18" fill="#ffaec1"/><path d="M 221.8 285.18 A 31.69 31.69 0 0 1  253.49 253.49 L 221.8 285.18 A 31.69 31.69 0 0 0 253.49 253.49" fill="#ff426f"/><path d="M 190.11 316.86 A 31.69 31.69 0 0 1  221.8 285.17 L 190.11 316.86 A 31.69 31.69 0 0 0 221.8 285.17" fill="#ff557d"/><path d="M 221.8 316.86 A 31.69 31.69 0 0 1  253.49 285.17 L 221.8 316.86 A 31.69 31.69 0 0 0 253.49 285.17" fill="#ffe1e8"/><rect x="316.8571428571429" y="253.4857142857143" width="63.371428571428574" height="63.371428571428574" fill="#ffffff"/><path d="M 316.86 285.18 A 31.69 31.69 0 0 1  348.55 253.49 L 316.86 285.18 A 31.69 31.69 0 0 0 348.55 253.49" fill="#e3e7fb"/><path d="M 348.54 285.18 A 31.69 31.69 0 0 1  380.23 253.49 L 348.54 285.18 A 31.69 31.69 0 0 0 380.23 253.49" fill="#ff4c76"/><path d="M 316.86 316.86 A 31.69 31.69 0 0 1  348.55 285.17 L 316.86 316.86 A 31.69 31.69 0 0 0 348.55 285.17" fill="#ff87a4"/><path d="M 506.97 253.49 A 63.37 63.37 0 0 1  570.34 316.86 L 506.97 253.49 A 63.37 63.37 0 0 0 570.34 316.86" fill="#3b5ce6"/><path d="M 570.34 316.86 A 63.37 63.37 0 0 1  633.71 253.49 L 570.34 316.86 A 63.37 63.37 0 0 0 633.71 253.49" fill="#ffdde5"/><path d="M 633.71 316.86 A 63.37 63.37 0 0 1  697.08 253.49 L 633.71 316.86 A 63.37 63.37 0 0 0 697.08 253.49" fill="#ffa0b7"/><path d="M 697.09 316.86 A 63.37 63.37 0 0 1  760.46 253.49 L 697.09 316.86 A 63.37 63.37 0 0 0 760.46 253.49" fill="#fafbfe"/><rect x="0" y="316.8571428571429" width="63.371428571428574" height="63.371428571428574" fill="#ffffff"/><path d="M 0 316.86 A 31.69 31.69 0 0 1  31.69 348.55 L 0 316.86 A 31.69 31.69 0 0 0 31.69 348.55" fill="#ff3868"/><path d="M 31.69 316.86 A 31.69 31.69 0 0 1  63.38 348.55 L 31.69 316.86 A 31.69 31.69 0 0 0 63.38 348.55" fill="#8b9ff0"/><path d="M 0 380.23 A 31.69 31.69 0 0 1  31.69 348.54 L 0 380.23 A 31.69 31.69 0 0 0 31.69 348.54" fill="#5f7aea"/><path d="M 31.69 380.23 A 31.69 31.69 0 0 1  63.38 348.54 L 31.69 380.23 A 31.69 31.69 0 0 0 63.38 348.54" fill="#fff2f5"/><path d="M 63.37 380.23 A 63.37 63.37 0 0 1  126.74 316.86 L 63.37 380.23 A 63.37 63.37 0 0 0 126.74 316.86" fill="#ffe6ec"/><rect x="126.74285714285715" y="316.8571428571429" width="63.371428571428574" height="63.371428571428574" fill="#ffffff"/><path d="M 126.74 316.86 A 31.69 31.69 0 0 1  158.43 348.55 L 126.74 316.86 A 31.69 31.69 0 0 0 158.43 348.55" fill="#5370e9"/><path d="M 126.74 348.54 A 31.69 31.69 0 0 1  158.43 380.23 L 126.74 348.54 A 31.69 31.69 0 0 0 158.43 380.23" fill="#ffd5df"/><path d="M 158.43 348.54 A 31.69 31.69 0 0 1  190.12 380.23 L 158.43 348.54 A 31.69 31.69 0 0 0 190.12 380.23" fill="#5471e9"/><path d="M 190.11 380.23 A 63.37 63.37 0 0 1  253.48000000000002 316.86 L 190.11 380.23 A 63.37 63.37 0 0 0 253.48000000000002 316.86" fill="#ff7696"/><rect x="253.4857142857143" y="316.8571428571429" width="63.371428571428574" height="63.371428571428574" fill="#ffffff"/><path d="M 285.17 316.86 A 31.69 31.69 0 0 1  316.86 348.55 L 285.17 316.86 A 31.69 31.69 0 0 0 316.86 348.55" fill="#869bef"/><path d="M 253.49 380.23 A 31.69 31.69 0 0 1  285.18 348.54 L 253.49 380.23 A 31.69 31.69 0 0 0 285.18 348.54" fill="#7e94ee"/><path d="M 285.17 380.23 A 31.69 31.69 0 0 1  316.86 348.54 L 285.17 380.23 A 31.69 31.69 0 0 0 316.86 348.54" fill="#ff7e9d"/><path d="M 316.86 380.23 A 63.37 63.37 0 0 1  380.23 316.86 L 316.86 380.23 A 63.37 63.37 0 0 0 380.23 316.86" fill="#ffb6c7"/><rect x="443.6" y="316.8571428571429" width="63.371428571428574" height="63.371428571428574" fill="#ffffff"/><path d="M 443.6 348.54 A 31.69 31.69 0 0 1  475.29 380.23 L 443.6 348.54 A 31.69 31.69 0 0 0 475.29 380.23" fill="#ff809e"/><path d="M 475.29 348.54 A 31.69 31.69 0 0 1  506.98 380.23 L 475.29 348.54 A 31.69 31.69 0 0 0 506.98 380.23" fill="#ffb0c3"/><path d="M 506.97 316.86 A 63.37 63.37 0 0 1  570.34 380.23 L 506.97 316.86 A 63.37 63.37 0 0 0 570.34 380.23" fill="#ccd5f8"/><path d="M 570.34 380.23 A 63.37 63.37 0 0 1  633.71 316.86 L 570.34 380.23 A 63.37 63.37 0 0 0 633.71 316.86" fill="#f2f4fd"/><rect x="633.7142857142858" y="316.8571428571429" width="63.371428571428574" height="63.371428571428574" fill="#ffffff"/><path d="M 633.71 348.55 A 31.69 31.69 0 0 1  665.4000000000001 316.86 L 633.71 348.55 A 31.69 31.69 0 0 0 665.4000000000001 316.86" fill="#ced6f9"/><path d="M 665.4 348.55 A 31.69 31.69 0 0 1  697.09 316.86 L 665.4 348.55 A 31.69 31.69 0 0 0 697.09 316.86" fill="#99aaf2"/><path d="M 665.4 348.54 A 31.69 31.69 0 0 1  697.09 380.23 L 665.4 348.54 A 31.69 31.69 0 0 0 697.09 380.23" fill="#ffbbcb"/><rect x="697.0857142857143" y="316.8571428571429" width="63.371428571428574" height="63.371428571428574" fill="#ffffff"/><path d="M 697.09 348.55 A 31.69 31.69 0 0 1  728.7800000000001 316.86 L 697.09 348.55 A 31.69 31.69 0 0 0 728.7800000000001 316.86" fill="#cfd7f9"/><path d="M 728.77 316.86 A 31.69 31.69 0 0 1  760.46 348.55 L 728.77 316.86 A 31.69 31.69 0 0 0 760.46 348.55" fill="#ff99b2"/><path d="M 697.09 348.54 A 31.69 31.69 0 0 1  728.7800000000001 380.23 L 697.09 348.54 A 31.69 31.69 0 0 0 728.7800000000001 380.23" fill="#ff3767"/><path d="M 728.77 348.54 A 31.69 31.69 0 0 1  760.46 380.23 L 728.77 348.54 A 31.69 31.69 0 0 0 760.46 380.23" fill="#2146e2"/><rect x="0" y="380.22857142857146" width="63.371428571428574" height="63.371428571428574" fill="#ffffff"/><path d="M 0 380.23 A 31.69 31.69 0 0 1  31.69 411.92 L 0 380.23 A 31.69 31.69 0 0 0 31.69 411.92" fill="#ff7797"/><path d="M 31.69 380.23 A 31.69 31.69 0 0 1  63.38 411.92 L 31.69 380.23 A 31.69 31.69 0 0 0 63.38 411.92" fill="#ffd1dc"/><path d="M 0 411.91 A 31.69 31.69 0 0 1  31.69 443.6 L 0 411.91 A 31.69 31.69 0 0 0 31.69 443.6" fill="#ffadc1"/><path d="M 31.69 411.91 A 31.69 31.69 0 0 1  63.38 443.6 L 31.69 411.91 A 31.69 31.69 0 0 0 63.38 443.6" fill="#f3f5fd"/><rect x="63.371428571428574" y="380.22857142857146" width="63.371428571428574" height="63.371428571428574" fill="#ffffff"/><path d="M 63.37 380.23 A 31.69 31.69 0 0 1  95.06 411.92 L 63.37 380.23 A 31.69 31.69 0 0 0 95.06 411.92" fill="#ffa9be"/><path d="M 95.06 411.92 A 31.69 31.69 0 0 1  126.75 380.23 L 95.06 411.92 A 31.69 31.69 0 0 0 126.75 380.23" fill="#657feb"/><path d="M 63.37 411.91 A 31.69 31.69 0 0 1  95.06 443.6 L 63.37 411.91 A 31.69 31.69 0 0 0 95.06 443.6" fill="#ff6f92"/><path d="M 95.06 443.6 A 31.69 31.69 0 0 1  126.75 411.91 L 95.06 443.6 A 31.69 31.69 0 0 0 126.75 411.91" fill="#e6eafc"/><rect x="126.74285714285715" y="380.22857142857146" width="63.371428571428574" height="63.371428571428574" fill="#ffffff"/><path d="M 126.74 411.92 A 31.69 31.69 0 0 1  158.43 380.23 L 126.74 411.92 A 31.69 31.69 0 0 0 158.43 380.23" fill="#ff7b9a"/><path d="M 158.43 380.23 A 31.69 31.69 0 0 1  190.12 411.92 L 158.43 380.23 A 31.69 31.69 0 0 0 190.12 411.92" fill="#ffa5ba"/><path d="M 126.74 443.6 A 31.69 31.69 0 0 1  158.43 411.91 L 126.74 443.6 A 31.69 31.69 0 0 0 158.43 411.91" fill="#ffaec2"/><path d="M 158.43 411.91 A 31.69 31.69 0 0 1  190.12 443.6 L 158.43 411.91 A 31.69 31.69 0 0 0 190.12 443.6" fill="#ffe8ee"/><path d="M 190.11 380.23 A 63.37 63.37 0 0 1  253.48000000000002 443.6 L 190.11 380.23 A 63.37 63.37 0 0 0 253.48000000000002 443.6" fill="#4e6ce8"/><path d="M 253.49 443.6 A 63.37 63.37 0 0 1  316.86 380.23 L 253.49 443.6 A 63.37 63.37 0 0 0 316.86 380.23" fill="#1f45e2"/><path d="M 316.86 443.6 A 63.37 63.37 0 0 1  380.23 380.23 L 316.86 443.6 A 63.37 63.37 0 0 0 380.23 380.23" fill="#ff7d9c"/><rect x="380.22857142857146" y="380.22857142857146" width="63.371428571428574" height="63.371428571428574" fill="#ffffff"/><path d="M 380.23 411.92 A 31.69 31.69 0 0 1  411.92 380.23 L 380.23 411.92 A 31.69 31.69 0 0 0 411.92 380.23" fill="#ffa4b9"/><path d="M 411.91 411.92 A 31.69 31.69 0 0 1  443.6 380.23 L 411.91 411.92 A 31.69 31.69 0 0 0 443.6 380.23" fill="#95a7f1"/><path d="M 380.23 443.6 A 31.69 31.69 0 0 1  411.92 411.91 L 380.23 443.6 A 31.69 31.69 0 0 0 411.92 411.91" fill="#ffc4d2"/><path d="M 411.91 443.6 A 31.69 31.69 0 0 1  443.6 411.91 L 411.91 443.6 A 31.69 31.69 0 0 0 443.6 411.91" fill="#ff86a3"/><path d="M 443.6 380.23 A 63.37 63.37 0 0 1  506.97 443.6 L 443.6 380.23 A 63.37 63.37 0 0 0 506.97 443.6" fill="#ff6b8e"/><path d="M 506.97 443.6 A 63.37 63.37 0 0 1  570.34 380.23 L 506.97 443.6 A 63.37 63.37 0 0 0 570.34 380.23" fill="#7d93ee"/><rect x="570.3428571428572" y="380.22857142857146" width="63.371428571428574" height="63.371428571428574" fill="#ffffff"/><path d="M 570.34 380.23 A 31.69 31.69 0 0 1  602.0300000000001 411.92 L 570.34 380.23 A 31.69 31.69 0 0 0 602.0300000000001 411.92" fill="#f9fafe"/><path d="M 602.03 411.92 A 31.69 31.69 0 0 1  633.72 380.23 L 602.03 411.92 A 31.69 31.69 0 0 0 633.72 380.23" fill="#ff6589"/><path d="M 570.34 411.91 A 31.69 31.69 0 0 1  602.0300000000001 443.6 L 570.34 411.91 A 31.69 31.69 0 0 0 602.0300000000001 443.6" fill="#8ea1f0"/><path d="M 602.03 411.91 A 31.69 31.69 0 0 1  633.72 443.6 L 602.03 411.91 A 31.69 31.69 0 0 0 633.72 443.6" fill="#3a5be5"/><path d="M 633.71 380.23 A 63.37 63.37 0 0 1  697.08 443.6 L 633.71 380.23 A 63.37 63.37 0 0 0 697.08 443.6" fill="#ff5d84"/><path d="M 697.09 443.6 A 63.37 63.37 0 0 1  760.46 380.23 L 697.09 443.6 A 63.37 63.37 0 0 0 760.46 380.23" fill="#fafbfe"/></g></svg>